<?xml version="1.0" encoding="UTF-8"?>
<svg viewBox="0 0 400 400" width="400" height="400" xmlns="http://www.w3.org/2000/svg">
  <defs>
    <linearGradient id="bGV" x1="0%" y1="100%" x2="0%" y2="0%">
      <stop offset="0%" style="stop-color:#38bdf8;stop-opacity:0.6"/>
      <stop offset="100%" style="stop-color:#a78bfa"/>
    </linearGradient>
    <filter id="gl">
      <feGaussianBlur stdDeviation="2.5" result="blur"/>
      <feMerge>
        <feMergeNode in="blur"/>
        <feMergeNode in="SourceGraphic"/>
      </feMerge>
    </filter>
  </defs>
  <!-- Background -->
  <path style="fill:#0f172a"
     d="m 48,0 h 304 c 26.592,0 48,21.408 48,48 v 304 c 0,26.592 -21.408,48 -48,48 H 48 C 21.408,400 0,378.592 0,352 V 48 C 0,21.408 21.408,0 48,0 Z" />
  <!-- Symmetric butterfly bars -->
  <g filter="url(#gl)">
    <path style="opacity:0.4;fill:url(#bGV)" d="M 76,60.0 C 76,57.8 77.8,56.0 80.0,56.0 C 82.2,56.0 84.0,57.8 84.0,60.0 V 150.8 C 84.0,153.0 82.2,154.8 80.0,154.8 C 77.8,154.8 76,153.0 76,150.8 Z" />
    <path style="opacity:0.46;fill:url(#bGV)" d="M 88,56.2 C 88,54.0 89.8,52.2 92.0,52.2 C 94.2,52.2 96.0,54.0 96.0,56.2 V 170.8 C 96.0,173.0 94.2,174.8 92.0,174.8 C 89.8,174.8 88,173.0 88,170.8 Z" />
    <path style="opacity:0.51;fill:url(#bGV)" d="M 100,58.5 C 100,56.3 101.8,54.5 104.0,54.5 C 106.2,54.5 108.0,56.3 108.0,58.5 V 179.4 C 108.0,181.6 106.2,183.4 104.0,183.4 C 101.8,183.4 100,181.6 100,179.4 Z" />
    <path style="opacity:0.43;fill:url(#bGV)" d="M 100,217.3 C 100,215.1 101.8,213.3 104.0,213.3 C 106.2,213.3 108.0,215.1 108.0,217.3 V 237.1 C 108.0,239.3 106.2,241.1 104.0,241.1 C 101.8,241.1 100,239.3 100,237.1 Z" />
    <path style="opacity:0.57;fill:url(#bGV)" d="M 112,63.8 C 112,61.6 113.8,59.8 116.0,59.8 C 118.2,59.8 120.0,61.6 120.0,63.8 V 183.9 C 120.0,186.1 118.2,187.9 116.0,187.9 C 113.8,187.9 112,186.1 112,183.9 Z" />
    <path style="opacity:0.48;fill:url(#bGV)" d="M 112,205.3 C 112,203.1 113.8,201.3 116.0,201.3 C 118.2,201.3 120.0,203.1 120.0,205.3 V 253.0 C 120.0,255.2 118.2,257.0 116.0,257.0 C 113.8,257.0 112,255.2 112,253.0 Z" />
    <path style="opacity:0.62;fill:url(#bGV)" d="M 124,71.6 C 124,69.4 125.8,67.6 128.0,67.6 C 130.2,67.6 132.0,69.4 132.0,71.6 V 186.0 C 132.0,188.2 130.2,190.0 128.0,190.0 C 125.8,190.0 124,188.2 124,186.0 Z" />
    <path style="opacity:0.53;fill:url(#bGV)" d="M 124,199.2 C 124,197.0 125.8,195.2 128.0,195.2 C 130.2,195.2 132.0,197.0 132.0,199.2 V 263.4 C 132.0,265.6 130.2,267.4 128.0,267.4 C 125.8,267.4 124,265.6 124,263.4 Z" />
    <path style="opacity:0.68;fill:url(#bGV)" d="M 136,81.7 C 136,79.5 137.8,77.7 140.0,77.7 C 142.2,77.7 144.0,79.5 144.0,81.7 V 186.2 C 144.0,188.4 142.2,190.2 140.0,190.2 C 137.8,190.2 136,188.4 136,186.2 Z" />
    <path style="opacity:0.58;fill:url(#bGV)" d="M 136,195.3 C 136,193.1 137.8,191.3 140.0,191.3 C 142.2,191.3 144.0,193.1 144.0,195.3 V 270.3 C 144.0,272.5 142.2,274.3 140.0,274.3 C 137.8,274.3 136,272.5 136,270.3 Z" />
    <path style="opacity:0.73;fill:url(#bGV)" d="M 148,93.8 C 148,91.6 149.8,89.8 152.0,89.8 C 154.2,89.8 156.0,91.6 156.0,93.8 V 272.9 C 156.0,275.1 154.2,276.9 152.0,276.9 C 149.8,276.9 148,275.1 148,272.9 Z" />
    <path style="opacity:0.79;fill:url(#bGV)" d="M 160,107.7 C 160,105.4 161.8,103.7 164.0,103.7 C 166.2,103.7 168.0,105.4 168.0,107.7 V 270.6 C 168.0,272.8 166.2,274.6 164.0,274.6 C 161.8,274.6 160,272.8 160,270.6 Z" />
    <path style="opacity:0.84;fill:url(#bGV)" d="M 172,123.2 C 172,121.0 173.8,119.2 176.0,119.2 C 178.2,119.2 180.0,121.0 180.0,123.2 V 262.1 C 180.0,264.3 178.2,266.1 176.0,266.1 C 173.8,266.1 172,264.3 172,262.1 Z" />
    <path style="opacity:0.9;fill:url(#bGV)" d="M 184,140.7 C 184,138.5 185.8,136.7 188.0,136.7 C 190.2,136.7 192.0,138.5 192.0,140.7 V 245.2 C 192.0,247.4 190.2,249.2 188.0,249.2 C 185.8,249.2 184,247.4 184,245.2 Z" />
    <path style="opacity:0.95;fill:url(#bGV)" d="M 196,156.0 C 196,153.8 197.8,152.0 200,152.0 C 202.2,152.0 204,153.8 204,156.0 V 230.0 C 204,232.2 202.2,234.0 200,234.0 C 197.8,234.0 196,232.2 196,230.0 Z" />
    <path style="opacity:0.9;fill:url(#bGV)" d="M 208,140.7 C 208,138.5 209.8,136.7 212.0,136.7 C 214.2,136.7 216.0,138.5 216.0,140.7 V 245.2 C 216.0,247.4 214.2,249.2 212.0,249.2 C 209.8,249.2 208,247.4 208,245.2 Z" />
    <path style="opacity:0.84;fill:url(#bGV)" d="M 220,123.2 C 220,121.0 221.8,119.2 224.0,119.2 C 226.2,119.2 228.0,121.0 228.0,123.2 V 262.1 C 228.0,264.3 226.2,266.1 224.0,266.1 C 221.8,266.1 220,264.3 220,262.1 Z" />
    <path style="opacity:0.79;fill:url(#bGV)" d="M 232,107.7 C 232,105.4 233.8,103.7 236.0,103.7 C 238.2,103.7 240.0,105.4 240.0,107.7 V 270.6 C 240.0,272.8 238.2,274.6 236.0,274.6 C 233.8,274.6 232,272.8 232,270.6 Z" />
    <path style="opacity:0.73;fill:url(#bGV)" d="M 244,93.8 C 244,91.6 245.8,89.8 248.0,89.8 C 250.2,89.8 252.0,91.6 252.0,93.8 V 272.9 C 252.0,275.1 250.2,276.9 248.0,276.9 C 245.8,276.9 244,275.1 244,272.9 Z" />
    <path style="opacity:0.68;fill:url(#bGV)" d="M 256,81.7 C 256,79.5 257.8,77.7 260.0,77.7 C 262.2,77.7 264.0,79.5 264.0,81.7 V 186.2 C 264.0,188.4 262.2,190.2 260.0,190.2 C 257.8,190.2 256,188.4 256,186.2 Z" />
    <path style="opacity:0.58;fill:url(#bGV)" d="M 256,195.3 C 256,193.1 257.8,191.3 260.0,191.3 C 262.2,191.3 264.0,193.1 264.0,195.3 V 270.3 C 264.0,272.5 262.2,274.3 260.0,274.3 C 257.8,274.3 256,272.5 256,270.3 Z" />
    <path style="opacity:0.62;fill:url(#bGV)" d="M 268,71.6 C 268,69.4 269.8,67.6 272.0,67.6 C 274.2,67.6 276.0,69.4 276.0,71.6 V 186.0 C 276.0,188.2 274.2,190.0 272.0,190.0 C 269.8,190.0 268,188.2 268,186.0 Z" />
    <path style="opacity:0.53;fill:url(#bGV)" d="M 268,199.2 C 268,197.0 269.8,195.2 272.0,195.2 C 274.2,195.2 276.0,197.0 276.0,199.2 V 263.4 C 276.0,265.6 274.2,267.4 272.0,267.4 C 269.8,267.4 268,265.6 268,263.4 Z" />
    <path style="opacity:0.57;fill:url(#bGV)" d="M 280,63.8 C 280,61.6 281.8,59.8 284.0,59.8 C 286.2,59.8 288.0,61.6 288.0,63.8 V 183.9 C 288.0,186.1 286.2,187.9 284.0,187.9 C 281.8,187.9 280,186.1 280,183.9 Z" />
    <path style="opacity:0.48;fill:url(#bGV)" d="M 280,205.3 C 280,203.1 281.8,201.3 284.0,201.3 C 286.2,201.3 288.0,203.1 288.0,205.3 V 253.0 C 288.0,255.2 286.2,257.0 284.0,257.0 C 281.8,257.0 280,255.2 280,253.0 Z" />
    <path style="opacity:0.51;fill:url(#bGV)" d="M 292,58.5 C 292,56.3 293.8,54.5 296.0,54.5 C 298.2,54.5 300.0,56.3 300.0,58.5 V 179.4 C 300.0,181.6 298.2,183.4 296.0,183.4 C 293.8,183.4 292,181.6 292,179.4 Z" />
    <path style="opacity:0.43;fill:url(#bGV)" d="M 292,217.3 C 292,215.1 293.8,213.3 296.0,213.3 C 298.2,213.3 300.0,215.1 300.0,217.3 V 237.1 C 300.0,239.3 298.2,241.1 296.0,241.1 C 293.8,241.1 292,239.3 292,237.1 Z" />
    <path style="opacity:0.46;fill:url(#bGV)" d="M 304,56.2 C 304,54.0 305.8,52.2 308.0,52.2 C 310.2,52.2 312.0,54.0 312.0,56.2 V 170.8 C 312.0,173.0 310.2,174.8 308.0,174.8 C 305.8,174.8 304,173.0 304,170.8 Z" />
    <path style="opacity:0.4;fill:url(#bGV)" d="M 316,60.0 C 316,57.8 317.8,56.0 320.0,56.0 C 322.2,56.0 324.0,57.8 324.0,60.0 V 150.8 C 324.0,153.0 322.2,154.8 320.0,154.8 C 317.8,154.8 316,153.0 316,150.8 Z" />
  </g>
  <!-- Text - lowercase -->
  <text x="200" y="342" text-anchor="middle" font-family="'Avenir Next', 'Segoe UI', sans-serif" font-size="36" font-weight="600" fill="#f1f5f9" letter-spacing="4">skywave</text>
  <text x="200" y="368" text-anchor="middle" font-family="'Avenir Next', 'Segoe UI', sans-serif" font-size="13" font-weight="500" fill="#64748b" letter-spacing="5">O S S</text>
</svg>
